:version 1.10
:name ASF
:units
  mass 1
  length 1
  angle deg
:documentation
  ASF file generated by Kaydara
:root
  axis xyz
  order  tx ty tz rx ry rz
  position 0 0 0
  orientation 0 0 0
:bonedata
  begin
    id 1
    name RightUpLegDummy
    direction -0.718183 -0.695806 0.00816078
    length 4.904
    axis 0 0 0 xyz
  end
  begin
    id 2
    name RightUpLeg
    direction 3.53373e-006 -0.995788 0.0916898
    length 17.4976
    axis -3.49089 -0.000906625 0.000286804 xyz
    dof rx ry rz
  end
  begin
    id 3
    name RightLeg
    direction 0.00371092 -0.995096 -0.0988419
    length 16.5821
    axis 3.68512 0.0193738 -0.131023 xyz
    dof rx ry rz
  end
  begin
    id 4
    name RightFoot
    direction 0.00079151 -0.46099 0.887405
    length 3.77069
    axis 4.81691e-005 -0.120479 -0.188788 xyz
    dof rx ry rz
  end
  begin
    id 5
    name RightToes
    direction 0 0 0
    length 0
    axis 0 0 0 xyz
    dof rx ry rz
  end
  begin
    id 6
    name SpineDummy
    direction 8.3039e-015 1 4.57515e-016
    length 4.6813
    axis 0 0 0 xyz
  end
  begin
    id 7
    name Spine
    direction -3.15643e-008 0.999988 0.00495137
    length 10.1015
    axis -0.001389 0.000121418 2.40972e-006 xyz
    dof rx ry rz
  end
  begin
    id 8
    name Spine1
    direction 0 0 0
    length 0
    axis -0.001389 0.000121451 1.30017e-006 xyz
    dof rx ry rz
  end
  begin
    id 9
    name HEadDummy
    direction -1.99912e-008 0.999999 0.00127422
    length 3.43865
    axis -0.001389 0.000121451 1.30017e-006 xyz
  end
  begin
    id 10
    name HEad
    direction 0 0 0
    length 0
    axis 0 0 0 xyz
    dof rx ry rz
  end
  begin
    id 11
    name LeftShoulder1Dummy
    direction 0.998891 -0.0402509 -0.0244456
    length 3.5433
    axis -0.001389 0.000121451 1.30017e-006 xyz
  end
  begin
    id 12
    name LeftShoulder1
    direction 0.99951 -0.000327763 0.0313091
    length 4.05031
    axis -0.001389 0.000121451 1.30017e-006 xyz
    dof rx ry rz
  end
  begin
    id 13
    name LeftArm
    direction 0.998561 -0.00100056 -0.0536182
    length 10.3537
    axis -23.1894 0.134784 0.967509 xyz
    dof rx ry rz
  end
  begin
    id 14
    name LeftForeArm
    direction 0.998903 0.00866432 0.046012
    length 8.70632
    axis -9.91835 -0.06569 -0.177794 xyz
    dof rx ry rz
  end
  begin
    id 15
    name LeftHand
    direction 0 0 0
    length 0
    axis 0 0 0 xyz
    dof rx ry rz
  end
  begin
    id 16
    name RightShoulderDummy
    direction -0.998891 -0.0402509 -0.0244414
    length 3.5433
    axis -0.001389 0.000121451 1.30017e-006 xyz
  end
  begin
    id 17
    name RightShoulder
    direction -0.99951 -0.000327807 0.0313133
    length 4.05031
    axis 0.215806 0.000203643 -0.0068026 xyz
    dof rx ry rz
  end
  begin
    id 18
    name RightArm
    direction -0.998573 -0.000999564 -0.053403
    length 10.3947
    axis -23.2009 -0.134239 -0.964101 xyz
    dof rx ry rz
  end
  begin
    id 19
    name RightForeArm
    direction -0.998898 0.00868028 0.0461306
    length 8.68355
    axis -9.92322 0.0658061 0.178868 xyz
    dof rx ry rz
  end
  begin
    id 20
    name RightHand
    direction 0 0 0
    length 0
    axis 0 0 0 xyz
    dof rx ry rz
  end
  begin
    id 21
    name LeftUpLegDummy
    direction 0.718183 -0.695806 0.00816078
    length 4.904
    axis 0 0 0 xyz
  end
  begin
    id 22
    name LeftUpLeg
    direction -6.81752e-006 -0.995793 0.0916337
    length 17.4976
    axis -3.48766 0.00143442 -0.000524262 xyz
    dof rx ry rz
  end
  begin
    id 23
    name LeftLeg
    direction -0.00601358 -0.995091 -0.0987824
    length 16.5821
    axis 3.68178 -0.00654042 -0.000285133 xyz
    dof rx ry rz
  end
  begin
    id 24
    name LeftFoot
    direction -0.00417578 -0.460984 0.887399
    length 3.77069
    axis 1.87233e-006 4.66016e-005 -8.6538e-006 xyz
    dof rx ry rz
  end
  begin
    id 25
    name LeftToes
    direction 0 0 0
    length 0
    axis 0 0 0 xyz
    dof rx ry rz
  end
:hierarchy
  begin
    root RightUpLegDummy SpineDummy LeftUpLegDummy
    RightUpLegDummy RightUpLeg
    RightUpLeg RightLeg
    RightLeg RightFoot
    RightFoot RightToes
    SpineDummy Spine
    Spine Spine1
    Spine1 HEadDummy LeftShoulder1Dummy RightShoulderDummy
    HEadDummy HEad
    LeftShoulder1Dummy LeftShoulder1
    LeftShoulder1 LeftArm
    LeftArm LeftForeArm
    LeftForeArm LeftHand
    RightShoulderDummy RightShoulder
    RightShoulder RightArm
    RightArm RightForeArm
    RightForeArm RightHand
    LeftUpLegDummy LeftUpLeg
    LeftUpLeg LeftLeg
    LeftLeg LeftFoot
    LeftFoot LeftToes
  end

:SAMPLES-PER-SECOND 30
:FULLY-SPECIFIED
:DEGREES
845
root  8.18816 38.0728 1.47486 -53.1285 86.3687 -56.0858
RightUpLeg  -28.1192 -20.4504 2.1999
RightLeg  34.3724 -4.75418 -3.75344
RightFoot  -6.98975 -0.0236332 -0.628693
RightToes  0.000481921 0.542163 -0.142578
Spine  43.9673 -1.05844 4.95807
Spine1  -8.64707 0.0918167 3.45428
HEad  -25.9423 2.06066 2.80805
LeftShoulder1  7.67719 -14.1194 -37.4323
LeftArm  -2.67739 -15.7479 -40.3724
LeftForeArm  -174.573 -60.1945 -164.066
LeftHand  -0.25398 0.0180481 5.50724
RightShoulder  4.40149 9.72919 27.2292
RightArm  -2.84139 6.83795 45.0752
RightForeArm  162.478 60.9591 161.458
RightHand  -1.49295 3.68638 -19.2471
LeftUpLeg  -32.138 22.2283 -0.340311
LeftLeg  44.088 4.75484 5.32257
LeftFoot  -9.7067 0.169458 -7.11524
LeftToes  1.06245e-005 4.65868e-005 -8.65517e-006
846
root  8.27273 38.109 1.58275 -49.5663 85.4066 -52.8692
RightUpLeg  -28.1592 -22.1052 3.43604
RightLeg  33.6247 -2.68712 -2.17698
RightFoot  -6.74605 -0.0188665 -0.665022
RightToes  0.000481921 0.542163 -0.142578
Spine  43.7888 -0.956925 4.88266
Spine1  -8.62269 0.268787 3.63737
HEad  -25.0821 2.62518 2.84329
LeftShoulder1  7.68373 -14.1191 -37.4689
LeftArm  -2.36894 -15.0222 -40.8411
LeftForeArm  -174.587 -60.1939 -164.065
LeftHand  -0.25398 0.0180481 5.50724
RightShoulder  4.41994 9.86949 27.0105
RightArm  -2.3723 6.46799 45.0116
RightForeArm  162.644 61.1522 161.334
RightHand  -1.52757 3.89062 -19.2669
LeftUpLeg  -29.8651 22.4533 -0.778109
LeftLeg  40.2211 4.812 4.70786
LeftFoot  -12.3327 0.0471456 -2.90768
LeftToes  1.06245e-005 4.65868e-005 -8.65517e-006
847
root  8.3101 38.0989 1.72222 -48.3764 84.7738 -51.9117
RightUpLeg  -28.8087 -24.237 4.53803
RightLeg  34.001 -0.262175 -0.445658
RightFoot  -6.10244 0.00760977 -1.01642
RightToes  0.000481921 0.542163 -0.142578
Spine  43.799 -0.666307 4.13517
Spine1  -9.02999 0.219986 4.67483
HEad  -24.5336 3.07647 3.0241
LeftShoulder1  7.6794 -14.0786 -37.5422
LeftArm  -2.02258 -14.5996 -41.1014
LeftForeArm  -174.687 -60.1792 -164.066
LeftHand  -0.25398 0.0180481 5.50724
RightShoulder  4.46548 10.0051 27.0155
RightArm  -2.00792 6.41565 45.1411
RightForeArm  162.884 61.2464 161.289
RightHand  -1.50987 3.8298 -19.1701
LeftUpLeg  -28.9593 21.0356 -0.180793
LeftLeg  38.6277 7.05136 6.39396
LeftFoot  -13.7764 0.0629774 -0.752499
LeftToes  1.06245e-005 4.65868e-005 -8.65517e-006
848
root  8.28697 38.0889 1.88737 -47.0127 84.432 -50.6964
RightUpLeg  -30.259 -26.2289 5.16978
RightLeg  35.7649 1.77725 1.11313
RightFoot  -4.59905 -0.0213776 -0.184096
RightToes  0.000481921 0.542163 -0.142578
Spine  43.8133 -0.400995 3.39208
Spine1  -9.42262 0.133317 5.4465
HEad  -24.8283 3.10918 3.33077
LeftShoulder1  7.65469 -14.1023 -37.3501
LeftArm  -1.58511 -14.9245 -41.2529
LeftForeArm  -174.895 -60.3305 -163.953
LeftHand  -0.25398 0.0180481 5.50724
RightShoulder  4.53632 10.1017 27.3111
RightArm  -2.05346 6.50474 45.4235
RightForeArm  163.127 61.1762 161.363
RightHand  -1.45581 3.56012 -19.0357
LeftUpLeg  -29.4104 20.0428 0.4706
LeftLeg  39.1383 8.75387 7.94019
LeftFoot  -13.0436 0.0660679 -0.862705
LeftToes  1.06245e-005 4.65868e-005 -8.65517e-006
849
root  8.23478 38.0682 2.02897 -41.961 83.9993 -45.6406
RightUpLeg  -32.0201 -27.4769 4.63171
RightLeg  38.7412 4.85416 3.91789
RightFoot  -2.23296 -0.466886 5.45606
RightToes  0.000481921 0.542163 -0.142578
Spine  43.8788 -0.302891 3.07573
Spine1  -9.37503 0.228269 4.9045
HEad  -25.5093 2.831 3.49651
LeftShoulder1  7.60101 -14.1633 -36.9104
LeftArm  -1.17756 -15.5539 -41.2974
LeftForeArm  -175.077 -60.5471 -163.799
LeftHand  -0.25398 0.0180481 5.50724
RightShoulder  4.59836 10.1455 27.67
RightArm  -2.29103 6.56853 46.015
RightForeArm  163.385 61.1352 161.417
RightHand  -1.42689 3.41027 -18.9715
LeftUpLeg  -29.8353 20.5326 0.692172
LeftLeg  39.7057 8.68281 8.03169
LeftFoot  -11.965 0.0658481 -1.03963
LeftToes  1.06245e-005 4.65868e-005 -8.65517e-006
